<svg width="59" height="37" viewBox="0 0 59 37" fill="none" xmlns="http://www.w3.org/2000/svg">
<path d="M44.3062 21.9658C43.7735 20.0556 42.7372 18.6329 40.9615 17.872C39.1592 17.0992 37.4571 17.3951 35.8323 18.4176C34.1898 14.4452 31.4197 12.3369 27.5068 12C27.4738 12.0291 27.4421 12.0581 27.4104 12.0898C27.1973 12.2986 26.9475 12.4307 26.6887 12.4914C26.4769 12.6143 26.2587 12.7279 26.038 12.8336C26.0266 12.8811 26.0152 12.9274 26 12.9736C26.1788 12.926 26.3691 12.9023 26.5695 12.8891C26.6913 12.8811 26.8117 12.8758 26.9335 12.8732C30.6181 12.7966 33.8524 15.2114 35.0688 18.946C35.3326 19.7558 35.4543 19.7954 36.1088 19.2907C36.1253 19.2789 36.1405 19.2643 36.157 19.2524C38.5111 17.4572 41.7708 18.2762 43.0632 21.0054C43.2674 21.4348 43.3981 21.9051 43.5249 22.3687C43.7126 23.0544 43.7862 23.1046 44.4609 22.8813C44.5434 22.8536 44.6271 22.8311 44.7184 22.8073L45 21.8575C44.7628 21.8945 44.5396 21.9302 44.3037 21.9672" fill="#E8E8E8"/>
<path d="M58.9488 29.7434C58.635 27.8789 57.5582 26.6966 55.81 26.2226C55.2026 26.0586 54.5487 26.0807 53.8396 26.0091C53.0791 24.2344 51.8228 22.849 50.0407 22L49.8487 22.8581C49.9001 22.8763 49.9403 22.8919 49.9779 22.9128C51.3836 23.6627 52.3851 24.806 53.0377 26.2903C53.3552 27.0117 53.3527 27.013 54.0969 26.9309C54.196 26.9205 54.2952 26.9049 54.3956 26.901C55.4197 26.8541 56.3333 27.1549 57.1001 27.8684C58.0753 28.776 58.4279 30.2512 57.9749 31.4439C57.5193 32.6405 56.691 33.1549 55.2063 33.1562C53.0866 33.1588 50.9682 33.1588 48.8497 33.1588C48.6903 33.1588 48.5297 33.1548 48.3703 33.1692C48.1381 33.19 47.9724 33.3463 48.0038 33.5702C48.0239 33.7134 48.1845 33.8697 48.3188 33.953C48.4255 34.0194 48.5912 33.996 48.7292 33.996C50.9882 33.996 53.2473 34.0038 55.5063 33.9895C55.8815 33.9869 56.2693 33.94 56.6283 33.8293C58.1945 33.3476 59.2462 31.4999 58.95 29.7421" fill="#E8E8E8"/>
<path d="M53.7034 12.8766C53.6161 12.8451 53.5194 12.8363 53.4274 12.8287C52.7529 12.7758 52.0784 12.7304 51.405 12.675C51.0147 12.6447 50.6243 12.6031 50.2434 12.5666C49.918 11.6857 49.6102 10.8452 49.2965 10.0085C49.1986 9.74762 49.1055 9.48173 48.9734 9.24104C48.7953 8.91466 48.4922 8.92222 48.313 9.2486C48.2092 9.43762 48.1408 9.64933 48.063 9.85221C47.7139 10.757 47.3672 11.6618 47.0135 12.5817C46.03 12.6611 45.0759 12.7367 44.1219 12.8148C43.9721 12.8274 43.8188 12.8274 43.675 12.8665C43.2622 12.9786 43.1797 13.2886 43.4745 13.6112C43.6054 13.7536 43.7552 13.8771 43.9002 14.0044C44.5972 14.6118 45.2953 15.2167 46.0052 15.8329C45.7422 16.8687 45.4804 17.892 45.2257 18.9165C45.0099 19.786 45.0759 19.8755 45.9179 19.8125C45.8943 19.9057 45.8625 20.0292 45.8259 20.1729C45.6066 21.0247 45.2033 22.5734 45.2033 22.5734C45.2056 22.5734 45.2092 22.5709 45.2115 22.5709C45.1184 22.9603 45.0512 23.2678 44.971 23.5715C43.8931 27.6682 42.5936 31.6843 41.1549 35.65C41.0936 35.8189 41.011 35.9878 41.0004 36.1617C40.9933 36.2738 41.0782 36.4679 41.1584 36.4943C41.2728 36.5309 41.4568 36.4868 41.5464 36.4011C41.6478 36.3028 41.6832 36.1226 41.7375 35.9726C41.9721 35.3211 42.2044 34.6684 42.4415 34.0005C43.6514 33.8732 44.8224 33.7497 46.0394 33.6225C46.0016 33.8077 45.9863 33.9236 45.9557 34.032C45.7434 34.7805 45.5276 35.5278 45.3141 36.2763C45.2764 36.4099 45.2151 36.5536 45.2328 36.6821C45.2481 36.7993 45.3401 36.9619 45.4309 36.9934C45.5217 37.0236 45.6832 36.9455 45.7599 36.8598C45.8436 36.7653 45.8731 36.6115 45.9156 36.4792C46.0759 35.9651 46.2351 35.4509 46.3884 34.9355C47.4922 31.2256 48.3967 27.4578 49.3012 23.6899C49.3154 23.6282 49.7411 21.6056 50.0371 20.1729C50.1456 19.6486 50.2364 19.2038 50.2847 18.9619C50.6633 19.2214 50.9887 19.447 51.3177 19.6675C51.5218 19.8036 51.7293 19.9952 51.9793 19.7772C52.1975 19.5869 52.1138 19.3475 52.0512 19.1118C51.8531 18.3582 51.6597 17.6047 51.4675 16.8511C51.3791 16.5058 51.3001 16.1593 51.2163 15.8064C51.9935 15.1511 52.7435 14.5186 53.4935 13.8847C53.6256 13.7725 53.7683 13.668 53.8791 13.5344C54.0937 13.2735 54.0147 12.9925 53.7046 12.8778M46.3012 32.8941C45.1019 33.0163 43.9686 33.1323 42.7823 33.2532C42.8011 33.1045 42.7988 32.9924 42.8306 32.8928C43.0228 32.2867 43.2339 31.6869 43.4155 31.0782C43.4875 30.8388 43.5889 30.7027 43.8365 30.685C44.8424 30.6157 45.8472 30.5363 46.9498 30.4532C46.7245 31.3 46.5193 32.075 46.3012 32.8941ZM47.1278 29.7298C46.0158 29.8193 44.9415 29.9063 43.7917 29.9983C44.0382 29.2018 44.2599 28.4873 44.4934 27.735C45.5582 27.6178 46.6113 27.5019 47.7257 27.3797C47.5158 28.2063 47.326 28.9536 47.129 29.7298M47.8967 26.6412C46.8566 26.7685 45.8236 26.8945 44.7009 27.0306C44.9262 26.2266 45.129 25.5046 45.3342 24.7724C46.3684 24.6867 47.3672 24.6035 48.4286 24.5153C48.2434 25.255 48.0771 25.9242 47.8967 26.6425M48.6963 23.2892V23.2917C48.6609 23.4455 48.6279 23.5967 48.5901 23.7618C47.5984 23.8651 46.616 23.9684 45.5358 24.0818C45.7304 23.3056 45.9061 22.6049 46.0877 21.8829C47.0736 21.8085 48.0241 21.7367 49.0241 21.6598C49.0123 21.7909 48.7281 23.1481 48.6963 23.2892ZM49.2257 20.9201C48.2481 21.0083 47.3059 21.0928 46.2847 21.1835C46.3613 20.8307 46.4321 20.4967 46.5028 20.1729C46.5689 19.8692 46.6337 19.5755 46.7033 19.2807C46.7234 19.195 46.7988 19.1068 46.8708 19.0538C47.4403 18.6393 48.0146 18.2335 48.6102 17.8101C49.0005 18.0747 49.3295 18.299 49.7045 18.5536C49.596 19.0904 49.4864 19.6247 49.3755 20.1729C49.326 20.4186 49.2753 20.6668 49.2246 20.9201M52.438 13.9364C51.9086 14.3837 51.3708 14.821 50.8425 15.2709C50.4628 15.5935 50.4628 15.625 50.6055 16.1391C50.8437 16.9985 51.0772 17.858 51.2317 18.793C51.0194 18.6506 50.806 18.5082 50.5937 18.3633C50.0571 17.9966 49.517 17.6349 48.9852 17.2581C48.7139 17.0666 48.4757 17.0817 48.2104 17.2795C47.6408 17.7017 47.0594 18.1062 46.4804 18.5158C46.3271 18.6241 46.1656 18.7212 45.9427 18.8661C45.9722 18.6619 45.9792 18.5309 46.0111 18.4086C46.2009 17.6967 46.3719 16.9759 46.6007 16.279C46.7552 15.8102 46.6915 15.4901 46.3071 15.194C45.8071 14.8059 45.3389 14.3699 44.8589 13.9527C44.7198 13.8318 44.5889 13.6995 44.3743 13.4953C45.1467 13.431 45.8106 13.3743 46.4757 13.3227C46.6443 13.3101 46.813 13.3025 46.9816 13.3075C47.3295 13.3176 47.5253 13.1488 47.6479 12.7959C47.9404 11.9529 48.2647 11.1224 48.6149 10.1824C48.7364 10.452 48.8295 10.6335 48.9014 10.8225C49.1444 11.4513 49.4015 12.0764 49.609 12.7191C49.7482 13.15 49.9934 13.3038 50.4026 13.3164C51.1338 13.3378 51.8626 13.3995 52.5925 13.4474C52.6609 13.4512 52.7293 13.4676 52.9039 13.4928C52.701 13.6869 52.576 13.8217 52.4369 13.9376" fill="#E8E8E8"/>
<path d="M6.89987 21.0011C7.06029 20.4057 7.17967 19.8331 7.36994 19.2847C8.46679 16.1311 11.6006 13.7418 15.1088 14.0224C17.4803 14.2128 19.3507 15.344 20.7982 17.242C20.8591 17.3207 20.9126 17.407 20.9586 17.4959C21.0569 17.6825 21.0171 17.8539 20.8641 17.9859C20.6826 18.1433 20.4898 18.1103 20.3319 17.9504C20.2063 17.8234 20.1117 17.6647 19.9998 17.5238C18.6045 15.7731 16.7914 14.8374 14.5927 14.793C12.7609 14.7562 11.2077 15.5382 9.89567 16.8103C8.72297 17.9478 8.01661 19.3443 7.79774 20.9897C7.68581 21.8326 7.68084 21.8326 6.86007 21.8695C4.21123 21.9888 1.71908 24.1204 1.06122 26.8308C0.660785 28.4825 0.778926 30.0796 1.54871 31.6056C1.6656 31.8379 1.8111 32.0576 1.95536 32.2747C2.3645 32.8904 2.8495 33.2027 3.66654 33.2002C15.8487 33.1633 28.0309 33.171 40.2131 33.1697C40.371 33.1697 40.5526 33.1341 40.6807 33.2002C40.815 33.27 40.9506 33.43 40.9891 33.5759C41.0413 33.7727 40.8996 33.9225 40.6981 33.9581C40.5427 33.9847 40.3822 33.9873 40.2243 33.9873C33.014 33.9898 25.8036 33.9911 18.5933 33.9911C13.4822 33.9911 8.37227 33.9797 3.26113 34C2.65426 34.0025 2.20283 33.8159 1.78748 33.3855C0.874682 32.4435 0.372272 31.2958 0.13226 30.0225C-0.454714 26.9007 0.949297 23.7001 3.60436 22.0485C4.51839 21.4797 5.38269 21.2017 6.89862 20.9998" fill="#E8E8E8"/>
<path d="M2.00103 28.957C2.10711 26.8118 2.78991 25.1436 4.34809 24.1445C4.44902 24.0801 4.56231 23.9963 4.66632 24.0001C4.77858 24.0053 4.88877 24.1046 5 24.1626C4.95057 24.2979 4.91658 24.4488 4.84552 24.5622C4.80124 24.6331 4.69928 24.6434 4.62513 24.6873C3.2966 25.4672 2.43563 27.3043 2.53759 29.1453C2.54686 29.309 2.5932 29.4817 2.56334 29.6326C2.53656 29.7679 2.42945 29.8788 2.35839 30C2.26468 29.9085 2.11843 29.8376 2.08857 29.7202C2.02575 29.4714 2.02472 29.1981 2 28.957" fill="#E8E8E8"/>
<path d="M13 17.2841C12.853 17.4507 12.7673 17.5923 12.6516 17.6673C12.4918 17.7714 12.302 17.8075 12.1364 17.8992C10.8793 18.6004 10.0493 19.7487 9.64997 21.3413C9.61293 21.4885 9.6083 21.6607 9.54 21.7801C9.47749 21.8884 9.31427 22.0273 9.25408 21.9953C9.14527 21.937 9.03877 21.7746 9.00751 21.6315C8.97857 21.4982 9.03992 21.3302 9.07813 21.1831C9.58514 19.2558 10.6154 17.8964 12.1735 17.123C12.3228 17.0494 12.4941 16.9925 12.6516 17.0008C12.7511 17.0064 12.8449 17.1494 13 17.2813" fill="#E8E8E8"/>
<path d="M33.7387 18C33.6088 17.8871 33.498 17.8232 33.4384 17.7327C33.2871 17.4994 33.1727 17.247 33.0166 17.0158C32.6186 16.4257 32.0764 15.9624 31.4091 15.6152C31.2947 15.5555 31.1589 15.514 31.0766 15.4298C31.0159 15.367 30.9754 15.22 31.0171 15.1625C31.0766 15.0805 31.2125 15.0219 31.3269 15.0017C31.4031 14.9889 31.502 15.0528 31.5843 15.0933C32.6674 15.6269 33.4324 16.4193 33.9365 17.4195C33.9806 17.5079 34.0187 17.624 33.9901 17.7092C33.9579 17.804 33.8483 17.8786 33.7375 17.9989" fill="#E8E8E8"/>
<path d="M39.9801 19.0008C40.6468 18.9864 41.2126 19.1719 41.7226 19.4587C41.8342 19.5218 41.9604 19.606 41.9923 19.6958C42.0215 19.779 41.9644 19.9062 41.8807 19.9702C41.8236 20.0152 41.6522 19.9999 41.5394 19.9846C41.4663 19.975 41.4012 19.9186 41.3401 19.8785C40.8407 19.5505 40.255 19.4291 39.5909 19.4989C39.3332 19.5266 39.0264 19.563 39.0012 19.3086C38.9786 19.0782 39.2801 19.04 39.5404 19.0199C39.6865 19.0084 39.834 19.0065 39.9814 19.0008" fill="#E8E8E8"/>
<path d="M44.4202 7C44.4859 7.03993 44.63 7.09283 44.7055 7.17768C45.1154 7.63184 45.5071 8.09398 45.9058 8.55314C46.0415 8.70985 46.0499 8.85757 45.8023 8.96038C45.5784 9.05421 45.4106 8.96837 45.2959 8.83861C44.8804 8.36848 44.4621 7.89934 44.0718 7.41723C43.897 7.20163 44.0523 6.99901 44.4188 7" fill="#E8E8E8"/>
<path d="M49.9987 6.50394C49.9987 6.87687 50.0027 7.25105 49.9967 7.62399C49.9928 7.81604 49.8978 7.98949 49.5399 7.99941C49.1285 8.0118 49.0099 7.82842 49.0079 7.61036C49.002 6.86325 49.004 6.11737 49 5.37025C49 5.16706 49.1147 5.01466 49.4628 5.00103C49.8781 4.98492 49.9908 5.15962 49.9908 5.38388C49.9908 5.75682 49.9908 6.131 49.9908 6.50394H49.9987Z" fill="#E8E8E8"/>
<path d="M57.5315 14.9979C57.1439 14.9979 56.7576 15.0038 56.37 14.9959C56.1641 14.9919 55.9914 14.8491 56.0003 14.5061C56.0093 14.1908 56.1551 14.0044 56.3738 14.0044C57.1273 14.0044 57.882 13.9984 58.6354 14.0004C58.8478 14.0004 58.9987 14.161 59 14.5001C59.0013 14.8531 58.8375 14.986 58.6303 14.9899C58.2632 14.9959 57.8973 14.9899 57.5302 14.9899V14.9959L57.5315 14.9979Z" fill="#E8E8E8"/>
<path d="M52.2952 9C52.1823 8.87581 52.0415 8.77625 52.0034 8.66027C51.9784 8.5874 52.0972 8.48374 52.1691 8.40265C52.5225 8.00339 52.8833 7.60619 53.2426 7.20898C53.2924 7.15458 53.3379 7.07453 53.4098 7.05811C53.5652 7.02321 53.7911 6.97086 53.8849 7.02013C53.9817 7.07145 54.036 7.26646 53.9729 7.34549C53.6224 7.78375 53.2294 8.20559 52.851 8.63153C52.7894 8.7003 52.7381 8.77728 52.6589 8.8327C52.5827 8.8871 52.4741 8.91994 52.2967 8.99897" fill="#E8E8E8"/>
<path d="M40.5615 14.002C40.9089 14.002 41.2563 14.002 41.6024 14.002C41.8052 14.002 41.9847 14.1031 41.9989 14.45C42.0157 14.8466 41.84 14.9953 41.605 14.9953C40.8701 14.9992 40.134 15.0012 39.3992 14.9992C39.199 14.9992 39.0182 14.906 39.0014 14.5551C38.982 14.1467 39.1693 14.0198 39.3979 14.0139C39.7853 14.0059 40.174 14.0119 40.5615 14.0119V14V14.002Z" fill="#E8E8E8"/>
<path d="M43 11.5108C43.0012 11.8934 42.7836 12.0973 42.5614 11.9541C42.3415 11.8125 42.138 11.6153 41.9287 11.44C41.6547 11.2108 41.3678 11.0052 41.1173 10.7321C41.0315 10.6394 40.9703 10.3293 41.015 10.2063C41.0609 10.0799 41.2902 9.95514 41.3713 10.0158C41.884 10.3967 42.3803 10.8231 42.8753 11.2512C42.9435 11.3102 42.9753 11.4585 43 11.5125" fill="#E8E8E8"/>
<path d="M57 10.4804C56.9576 10.553 56.9046 10.7033 56.8187 10.7792C56.3771 11.1671 55.9284 11.5385 55.4797 11.9133C55.309 12.0552 55.1477 12.0305 55.0488 11.7829C54.9534 11.5451 54.9993 11.3272 55.1747 11.1853C55.6411 10.8056 56.1039 10.4111 56.5784 10.0545C56.7927 9.89275 57.0177 10.1073 56.9988 10.4821" fill="#E8E8E8"/>
<path d="M16 17.6056C15.874 17.7161 15.7279 17.9426 15.5449 17.9856C15.2644 18.053 15.031 17.8808 15.0025 17.5214C14.9773 17.2031 15.1469 17.0272 15.4173 17.0028C15.7145 16.9766 15.916 17.1283 16 17.6056Z" fill="#E8E8E8"/>
<path d="M30 15.5386C29.7035 15.7693 29.5312 16.002 29.3589 16C29.2346 16 29.0309 15.704 29.006 15.5121C28.9613 15.1793 29.1717 14.9486 29.4351 15.0099C29.5958 15.0466 29.73 15.2753 29.9983 15.5386" fill="#E8E8E8"/>
<path d="M32.9479 7.93344C31.7684 7.86827 30.6163 8.56423 29.8117 9.38806C29.7843 9.35487 29.7519 9.32535 29.7145 9.29953C29.7133 9.29953 29.7108 9.2983 29.7096 9.29707C30.3087 8.40684 31.2303 7.58546 32.3052 7.42315C32.3787 7.41208 32.365 7.29896 32.2915 7.31003C31.1755 7.47848 30.2277 8.32322 29.6087 9.2442C29.3982 9.16182 29.1503 9.22945 29.0145 9.42003C28.9162 9.55652 28.8987 9.72498 28.9523 9.8713C28.8514 9.94508 28.7418 10.0311 28.6235 10.1295C29.0992 8.9036 29.788 6.50586 28.8726 4.57906C28.3208 3.41831 27.8961 2.71498 27.5834 2.16165C27.505 2.02271 27.434 1.8936 27.3692 1.76941C27.3692 1.76941 27.3692 1.76818 27.3692 1.76695C27.3493 1.72883 27.3306 1.69071 27.3119 1.65382C27.3082 1.64522 27.3032 1.63661 27.2995 1.628C27.2845 1.59849 27.2708 1.56775 27.2571 1.53824C27.2521 1.52717 27.2471 1.51611 27.2422 1.50504C27.2297 1.47799 27.2172 1.44971 27.206 1.42266C27.2011 1.41036 27.1961 1.3993 27.1911 1.387C27.1799 1.35995 27.1687 1.33167 27.1575 1.30462C27.1525 1.29355 27.1487 1.28248 27.1438 1.27019C27.1326 1.24068 27.1213 1.20994 27.1101 1.1792C27.1076 1.17059 27.1039 1.16198 27.1014 1.15337C27.074 1.07468 27.0503 0.994754 27.0279 0.91114C27.0254 0.900074 27.0229 0.890237 27.0205 0.87917C27.013 0.84843 27.0055 0.81769 26.998 0.78572C26.9943 0.770965 26.9918 0.75621 26.9881 0.740225C26.9818 0.711944 26.9769 0.683663 26.9719 0.655382C26.9681 0.638167 26.9657 0.620953 26.9632 0.603738C26.9582 0.575457 26.9532 0.547176 26.9495 0.517665C26.947 0.499221 26.9445 0.482007 26.942 0.462333C26.9382 0.432822 26.9345 0.402082 26.9308 0.371342C26.9283 0.352898 26.927 0.334454 26.9245 0.31601C26.9208 0.28281 26.9183 0.247151 26.9146 0.212722C26.9133 0.195508 26.9108 0.179523 26.9096 0.162308C26.9059 0.109435 26.9021 0.056562 26.8996 0C26.8996 0 25.6118 1.35503 23.7248 2.75309C21.8366 4.15116 21.0643 7.83753 23.7248 9.48889C23.7248 9.48889 20.9983 8.32568 18.9183 9.78523C16.9603 11.1587 16.7299 12.5383 16 12.3268C16 12.3268 16 12.3268 16.0012 12.3281C16.0012 12.3281 16.0012 12.3281 16.0025 12.3293C16.0037 12.3305 16.0062 12.3317 16.0075 12.3342C16.2603 12.5506 21.6709 17.1051 26.3142 13.2048C26.0602 13.7323 25.821 14.3286 25.6143 15C25.6143 15 28.4827 13.2331 29.3845 10.1947C29.5564 10.2082 29.7295 10.1357 29.8366 9.98689C29.9462 9.83318 29.9549 9.63768 29.8765 9.48029C30.6549 8.67366 31.7896 7.97893 32.9392 8.04287C33.0139 8.04656 33.0227 7.93344 32.9492 7.92975" fill="#E8E8E8"/>
<path d="M50.574 16.1737C50.8253 17.0644 51.0716 17.9552 51.2346 18.9242C51.0106 18.7767 50.7855 18.6291 50.5615 18.4789C49.9954 18.0988 49.4256 17.724 48.8645 17.3335C48.5784 17.135 48.3271 17.1506 48.0471 17.3557C47.4462 17.7932 46.8329 18.2125 46.222 18.6369C46.0603 18.7492 45.8898 18.8498 45.6547 19C45.6858 18.7884 45.6933 18.6526 45.7268 18.5259C45.9272 17.788 46.1075 17.0422 46.3489 16.3187C46.5119 15.8328 46.4447 15.5011 46.0391 15.1942C45.5116 14.7919 45.0177 14.34 44.5113 13.9077C44.3645 13.7823 44.2264 13.6452 44 13.4336C44.8149 13.367 45.5153 13.3082 46.217 13.2547C46.3949 13.2403 46.5741 13.2338 46.7508 13.239C47.1178 13.2495 47.3243 13.0744 47.4537 12.7088C47.7622 11.835 48.1044 10.9743 48.4739 10C48.602 10.2795 48.7003 10.4676 48.7774 10.6635C49.0337 11.3152 49.3049 11.963 49.5239 12.6291C49.6707 13.0758 49.9295 13.2364 50.3612 13.2481C51.1313 13.2704 51.9014 13.3343 52.6716 13.384C52.7437 13.3879 52.8159 13.4049 53 13.431C52.786 13.6321 52.6541 13.7719 52.5073 13.8933C51.9487 14.357 51.3814 14.8102 50.824 15.2764C50.4234 15.6108 50.4234 15.6434 50.574 16.1763" fill="#E8E8E8"/>
</svg>
