<svg width="15" height="18" viewBox="0 0 15 18" fill="none" xmlns="http://www.w3.org/2000/svg">
<path fillRule="evenodd" clipRule="evenodd" d="M3.93288 3.125C3.93288 1.39911 5.33199 0 7.05788 0C8.78377 0 10.1829 1.39911 10.1829 3.125V3.96648C11.7598 4.07645 13.0575 5.28821 13.2562 6.87822L14.0895 13.5449C14.3382 15.5344 12.7869 17.2917 10.7819 17.2917H3.33382C1.32883 17.2917 -0.222457 15.5344 0.0262315 13.5449L0.859565 6.87822C1.05832 5.28821 2.35596 4.07645 3.93288 3.96648V3.125ZM8.93288 3.125V3.95833H5.18288V3.125C5.18288 2.08947 6.02235 1.25 7.05788 1.25C8.09342 1.25 8.93288 2.08947 8.93288 3.125ZM5.73206 8.41528C5.48798 8.1712 5.09226 8.1712 4.84818 8.41528C4.6041 8.65935 4.6041 9.05508 4.84818 9.29916L6.17402 10.625L4.84821 11.9508C4.60413 12.1949 4.60413 12.5906 4.84821 12.8347C5.09229 13.0788 5.48801 13.0788 5.73209 12.8347L7.0579 11.5089L8.38371 12.8347C8.62779 13.0788 9.02352 13.0788 9.2676 12.8347C9.51167 12.5906 9.51167 12.1949 9.2676 11.9508L7.94179 10.625L9.26763 9.29916C9.5117 9.05508 9.5117 8.65935 9.26763 8.41528C9.02355 8.1712 8.62782 8.1712 8.38374 8.41528L7.0579 9.74112L5.73206 8.41528Z" fill="#093800"/>
</svg>
