<svg width="18" height="21" viewBox="0 0 18 21" fill="none" xmlns="http://www.w3.org/2000/svg">
<path d="M5.75 8.01764L7.04289 9.31053C7.43342 9.70106 7.43342 10.3342 7.04289 10.7247L5.75 12.0176M6.75 10.0176L0.75 10.0176M16.75 15.0176V5.01761M4.75 15.0176C4.75 16.1222 5.64543 17.0176 6.75 17.0176H10.75M4.75 5.01761C4.75 3.91304 5.64543 3.01761 6.75 3.01761H10.75M15.8594 17.6113L13.8594 18.9447C12.5303 19.8308 10.75 18.878 10.75 17.2806V2.75465C10.75 1.15725 12.5303 0.204471 13.8594 1.09054L15.8594 2.42388C16.4158 2.79481 16.75 3.41927 16.75 4.08798V15.9472C16.75 16.616 16.4158 17.2404 15.8594 17.6113Z" stroke="white" stroke-width="1.5" stroke-linecap="round"/>
</svg>
