<svg width="47" height="54" viewBox="0 0 47 54" fill="none" xmlns="http://www.w3.org/2000/svg">
<path fillRule="evenodd" clipRule="evenodd" d="M38.5859 30.5858C37.8048 31.3669 37.8048 32.6332 38.5859 33.4143C39.3669 34.1953 40.6332 34.1953 41.4143 33.4143L44.862 29.9665C46.6845 28.1441 46.6845 25.1893 44.862 23.3669L41.4143 19.9192C40.6333 19.1381 39.3669 19.1381 38.5859 19.9192C37.8048 20.7002 37.8048 21.9665 38.5859 22.7476L40.505 24.6667L26.6667 24.6667C25.5622 24.6667 24.6667 25.5621 24.6667 26.6667C24.6667 27.7713 25.5622 28.6667 26.6667 28.6667L40.505 28.6667L38.5859 30.5858Z" fill="#D90202"/>
<path fillRule="evenodd" clipRule="evenodd" d="M21.3333 6.70966L29.3333 6.70966C33.3833 6.70966 36.6666 9.9929 36.6666 14.043C36.6666 15.1476 35.7712 16.043 34.6666 16.043C33.562 16.043 32.6666 15.1476 32.6666 14.043C32.6666 12.202 31.1742 10.7097 29.3333 10.7097H21.3333V6.70966ZM34.6666 38.7097C35.7712 38.7097 36.6666 39.6051 36.6666 40.7097C36.6666 44.7597 33.3833 48.043 29.3333 48.043H21.3333V44.043H29.3333C31.1742 44.043 32.6666 42.5506 32.6666 40.7097C32.6666 39.6051 33.562 38.7097 34.6666 38.7097Z" fill="#D90202"/>
<path opacity="0.4" d="M0 10.658C0 8.73363 1.01852 6.93655 2.71421 5.86908L11.8571 0.976329C15.9077 -1.57361 21.3334 1.16831 21.3334 5.76528V47.5681C21.3334 52.165 15.9077 54.9069 11.8571 52.357L2.71425 47.4556C1.01857 46.3881 4.57764e-05 44.5911 4.57764e-05 42.6667L0 10.658Z" fill="#D90202"/>
</svg>
